<svg xmlns="http://www.w3.org/2000/svg" xmlns:xlink="http://www.w3.org/1999/xlink" width="3000" zoomAndPan="magnify" viewBox="0 0 2250 2250.000011" height="3000" preserveAspectRatio="xMidYMid meet" version="1.0"><defs><g/><clipPath id="b6c54a837d"><rect x="0" width="2218" y="0" height="1688"/></clipPath></defs><g transform="matrix(1, 0, 0, 1, 16, 561)"><g clip-path="url(#b6c54a837d)"><g fill="#ff8fb1" fill-opacity="1"><g transform="translate(1.174834, 1678.747888)"><g><path d="M 52.75 -562.703125 C 52.75 -673.535156 76.726562 -772.378906 124.6875 -859.234375 C 172.644531 -946.085938 239.519531 -1013.757812 325.3125 -1062.25 C 411.101562 -1110.738281 508.347656 -1134.984375 617.046875 -1134.984375 C 750.265625 -1134.984375 864.296875 -1099.816406 959.140625 -1029.484375 C 1053.992188 -959.148438 1117.40625 -863.234375 1149.375 -741.734375 L 848.84375 -741.734375 C 826.46875 -788.628906 794.765625 -824.332031 753.734375 -848.84375 C 712.703125 -873.351562 666.078125 -885.609375 613.859375 -885.609375 C 529.660156 -885.609375 461.453125 -856.300781 409.234375 -797.6875 C 357.015625 -739.070312 330.90625 -660.742188 330.90625 -562.703125 C 330.90625 -464.648438 357.015625 -386.316406 409.234375 -327.703125 C 461.453125 -269.085938 529.660156 -239.78125 613.859375 -239.78125 C 666.078125 -239.78125 712.703125 -252.035156 753.734375 -276.546875 C 794.765625 -301.066406 826.46875 -336.769531 848.84375 -383.65625 L 1149.375 -383.65625 C 1117.40625 -262.164062 1053.992188 -166.515625 959.140625 -96.703125 C 864.296875 -26.898438 750.265625 8 617.046875 8 C 508.347656 8 411.101562 -16.242188 325.3125 -64.734375 C 239.519531 -113.234375 172.644531 -180.644531 124.6875 -266.96875 C 76.726562 -353.289062 52.75 -451.867188 52.75 -562.703125 Z M 52.75 -562.703125 "/></g></g></g><g fill="#ff8fb1" fill-opacity="1"><g transform="translate(1219.288887, 1678.747888)"><g><path d="M 954.34375 -760.921875 C 954.34375 -695.910156 939.421875 -636.492188 909.578125 -582.671875 C 879.742188 -528.859375 833.921875 -485.429688 772.109375 -452.390625 C 710.296875 -419.359375 633.566406 -402.84375 541.921875 -402.84375 L 372.46875 -402.84375 L 372.46875 0 L 99.109375 0 L 99.109375 -1122.203125 L 541.921875 -1122.203125 C 631.441406 -1122.203125 707.109375 -1106.75 768.921875 -1075.84375 C 830.734375 -1044.9375 877.085938 -1002.304688 907.984375 -947.953125 C 938.890625 -893.597656 954.34375 -831.253906 954.34375 -760.921875 Z M 521.140625 -620.25 C 573.359375 -620.25 612.253906 -632.503906 637.828125 -657.015625 C 663.410156 -681.523438 676.203125 -716.160156 676.203125 -760.921875 C 676.203125 -805.679688 663.410156 -840.316406 637.828125 -864.828125 C 612.253906 -889.335938 573.359375 -901.59375 521.140625 -901.59375 L 372.46875 -901.59375 L 372.46875 -620.25 Z M 521.140625 -620.25 "/></g></g></g></g></g><path fill="#ff8fb1" d="M 490.96875 1705.628906 ... (tronqué pour clarté, voir original pour le chemin complet) ... Z M 490.96875 1705.628906 " fill-opacity="1" fill-rule="nonzero"/></svg>
