<svg xmlns="http://www.w3.org/2000/svg" xmlns:xlink="http://www.w3.org/1999/xlink" width="3000" zoomAndPan="magnify" viewBox="0 0 2250 2250.000011" height="3000" preserveAspectRatio="xMidYMid meet" version="1.0"><defs><g/><clipPath id="6b4cdd7e6b"><path d="M 0.5 0 L 2249.5 0 L 2249.5 2249 L 0.5 2249 Z M 0.5 0 " clip-rule="nonzero"/></clipPath><clipPath id="e5b946bb18"><rect x="0" width="2250" y="0" height="2249"/></clipPath></defs><g clip-path="url(#6b4cdd7e6b)"><g transform="matrix(1, 0, 0, 1, 0.000000000000000056, -0.00000000000012564)"><g clip-path="url(#e5b946bb18)"><g fill="#ffffff" fill-opacity="1"><g transform="translate(0.499772, 1806.415009)"><g><path d="M 698.734375 -1063.296875 C 647.234375 -1063.296875 601.660156 -1053.3125 562.015625 -1033.34375 C 522.378906 -1013.382812 489.109375 -984.597656 462.203125 -946.984375 C 435.296875 -909.367188 414.898438 -863.941406 401.015625 -810.703125 C 387.128906 -757.472656 380.1875 -697.582031 380.1875 -631.03125 C 380.1875 -541.34375 391.320312 -464.816406 413.59375 -401.453125 C 435.875 -338.085938 470.453125 -289.765625 517.328125 -256.484375 C 564.203125 -223.210938 624.671875 -206.578125 698.734375 -206.578125 C 750.234375 -206.578125 801.878906 -212.363281 853.671875 -223.9375 C 905.460938 -235.507812 961.738281 -252.003906 1022.5 -273.421875 L 1022.5 -47.734375 C 966.363281 -24.585938 911.097656 -7.953125 856.703125 2.171875 C 802.316406 12.296875 741.269531 17.359375 673.5625 17.359375 C 542.78125 17.359375 435.289062 -9.691406 351.09375 -63.796875 C 266.90625 -117.898438 204.554688 -193.703125 164.046875 -291.203125 C 123.546875 -388.710938 103.296875 -502.566406 103.296875 -632.765625 C 103.296875 -728.828125 116.3125 -816.785156 142.34375 -896.640625 C 168.382812 -976.492188 206.578125 -1045.644531 256.921875 -1104.09375 C 307.265625 -1162.539062 369.472656 -1207.675781 443.546875 -1239.5 C 517.617188 -1271.320312 602.679688 -1287.234375 698.734375 -1287.234375 C 761.804688 -1287.234375 825.023438 -1279.273438 888.390625 -1263.359375 C 951.753906 -1247.453125 1012.367188 -1225.609375 1070.234375 -1197.828125 L 983.4375 -979.09375 C 935.988281 -1001.664062 888.25 -1021.34375 840.21875 -1038.125 C 792.1875 -1054.90625 745.023438 -1063.296875 698.734375 -1063.296875 Z M 698.734375 -1063.296875 "/></g></g><g transform="translate(1133.236719, 1806.415009)"><g><path d="M 565.0625 -1269.015625 C 728.820312 -1269.015625 848.316406 -1233.859375 923.546875 -1163.546875 C 998.773438 -1093.242188 1036.390625 -996.460938 1036.390625 -873.203125 C 1036.390625 -817.648438 1028 -764.554688 1011.21875 -713.921875 C 994.4375 -663.296875 967.09375 -618.304688 929.1875 -578.953125 C 891.289062 -539.609375 840.800781 -508.503906 777.71875 -485.640625 C 714.644531 -462.785156 636.816406 -451.359375 544.234375 -451.359375 L 428.796875 -451.359375 L 428.796875 0 L 159.71875 0 L 159.71875 -1269.015625 Z M 551.171875 -1048.546875 L 428.796875 -1048.546875 L 428.796875 -671.828125 L 517.328125 -671.828125 C 567.671875 -671.828125 611.359375 -678.476562 648.390625 -691.78125 C 685.421875 -705.09375 714.0625 -725.925781 734.3125 -754.28125 C 754.570312 -782.644531 764.703125 -819.101562 764.703125 -863.65625 C 764.703125 -926.15625 747.34375 -972.59375 712.625 -1002.96875 C 677.90625 -1033.351562 624.085938 -1048.546875 551.171875 -1048.546875 Z M 551.171875 -1048.546875 "/></g></g></g></g></g></g><path fill="#ffffff" d="M 614.929688 1198.019531 C 614.847656 1197.203125 614.242188 1194.578125 613.113281 1190.144531 C 612.660156 1188.355469 612.101562 1185.671875 611.441406 1182.089844 C 609.046875 1169.160156 607.246094 1159.042969 606.039062 1151.734375 C 605.769531 1150.082031 605.800781 1147.984375 605.464844 1146.257812 C 603.960938 1138.492188 603.738281 1129.761719 604.804688 1120.070312 C 605.179688 1116.699219 604.277344 1113.703125 601.871094 1110.378906 C 600.324219 1108.242188 599.222656 1106.121094 598.574219 1104.007812 C 596.652344 1097.769531 595.550781 1091.6875 595.265625 1085.761719 C 595.210938 1084.609375 594.835938 1083.53125 594.136719 1082.527344 C 588.929688 1075.039062 596.371094 1070.207031 597.230469 1062.996094 C 597.273438 1062.601562 597.214844 1062.226562 597.050781 1061.875 C 595.277344 1058.058594 594.816406 1053.699219 595.667969 1048.800781 C 595.921875 1047.335938 596.4375 1046.039062 597.207031 1044.902344 C 599.136719 1042.0625 600.695312 1039.328125 601.09375 1035.496094 C 601.640625 1030.335938 602.269531 1025.191406 602.976562 1020.066406 C 603.945312 1013.148438 608.011719 1011.832031 613.054688 1008.597656 C 617.371094 1005.828125 616.335938 999.78125 621.378906 997.691406 C 622.902344 997.0625 626.070312 996.40625 628.183594 994.753906 C 630.132812 993.230469 631.800781 990.757812 634.78125 987.164062 C 636.960938 984.527344 640.09375 983.890625 643.761719 984.5625 C 645.148438 984.8125 648.019531 985.226562 652.375 985.804688 C 653.984375 986.011719 655.835938 985.441406 657.933594 984.085938 C 661.078125 982.046875 664.464844 977.1875 669.976562 977.175781 C 673.003906 977.175781 676.359375 977.660156 679.847656 978.742188 C 682.9375 979.703125 684.820312 980.210938 685.503906 980.265625 C 687.042969 980.394531 689.4375 980.164062 692.683594 979.566406 C 693.242188 979.464844 693.765625 979.277344 694.253906 979.003906 C 697.816406 977.015625 702.605469 975.441406 706.421875 974.714844 C 711.601562 973.714844 716.097656 975.890625 722.128906 978.027344 C 724.546875 978.886719 726.953125 979.457031 729.34375 979.738281 C 734.441406 980.34375 738.453125 980.65625 741.382812 980.671875 C 747.238281 980.699219 750.183594 981.058594 755.367188 981.171875 C 761.800781 981.320312 767.554688 982.726562 774.375 984.28125 C 775.695312 984.582031 776.925781 985.097656 778.058594 985.820312 C 782.488281 988.65625 786.828125 991.644531 792.648438 992.101562 C 798.109375 992.527344 805.097656 992.953125 811.597656 994.746094 C 817.203125 996.289062 822.464844 998.070312 827.382812 1000.082031 C 831.40625 1001.730469 834.6875 1003.542969 837.230469 1005.519531 C 842.304688 1009.457031 848.488281 1015.449219 849.46875 1021.71875 C 849.96875 1024.910156 850.238281 1029.144531 849.429688 1032.558594 C 849.378906 1032.761719 849.390625 1032.964844 849.464844 1033.160156 C 849.535156 1033.359375 849.652344 1033.523438 849.820312 1033.65625 C 852.535156 1035.734375 856.179688 1038.753906 860.757812 1042.71875 C 865.0625 1046.449219 868.285156 1049.863281 870.425781 1052.949219 C 874.890625 1059.40625 878.089844 1066.4375 880.019531 1074.046875 C 883.140625 1086.347656 885.9375 1099.046875 888.402344 1112.144531 C 890.753906 1124.628906 891.9375 1137.253906 891.949219 1150.023438 C 891.949219 1150.203125 892.027344 1150.335938 892.179688 1150.425781 C 892.335938 1150.511719 892.484375 1150.507812 892.636719 1150.417969 C 895.320312 1148.773438 899.363281 1145.890625 903.023438 1147.214844 C 911.078125 1150.128906 914.679688 1157.238281 916.726562 1165.039062 C 918.441406 1171.578125 919.5625 1178.890625 920.085938 1186.984375 C 920.796875 1197.980469 918.816406 1209.308594 915.3125 1219.558594 C 914.519531 1221.875 912.878906 1224.878906 910.382812 1228.574219 C 910.210938 1228.835938 909.988281 1229.054688 909.71875 1229.226562 C 905.988281 1231.691406 901.199219 1233.695312 896.484375 1233.707031 C 895.433594 1233.707031 894.019531 1233.742188 892.234375 1233.8125 C 886.78125 1234.039062 883.761719 1240.550781 882.753906 1245.371094 C 881.710938 1250.359375 880.871094 1254.898438 880.234375 1258.984375 C 879.992188 1260.511719 879.1875 1262.054688 877.816406 1263.609375 C 877.347656 1264.140625 876.984375 1264.734375 876.730469 1265.394531 C 871.597656 1278.605469 866.183594 1291.492188 858.238281 1302.503906 C 848.730469 1315.667969 838.792969 1327.492188 828.429688 1337.976562 C 823.617188 1342.84375 817.910156 1347.714844 811.3125 1352.585938 C 797.992188 1362.425781 787.890625 1369.074219 773.195312 1372.570312 C 771.039062 1373.082031 768.957031 1373.445312 766.941406 1373.652344 C 766.296875 1373.722656 765.652344 1373.707031 765.011719 1373.609375 C 757.433594 1372.496094 750.765625 1370.917969 745.003906 1368.871094 C 733.8125 1364.90625 721.917969 1359.144531 711.472656 1351.761719 C 709.527344 1350.386719 707.054688 1349.007812 704.054688 1347.625 C 702.4375 1346.882812 698.296875 1344.230469 691.628906 1339.660156 C 688.582031 1337.582031 684.449219 1334.628906 679.226562 1330.804688 C 674.195312 1327.121094 670.3125 1323.835938 667.585938 1320.949219 C 664.125 1317.289062 660.914062 1313.101562 657.957031 1308.382812 C 655.785156 1304.910156 652.746094 1300.097656 648.835938 1293.941406 C 648.773438 1293.839844 648.6875 1293.757812 648.582031 1293.695312 C 648.480469 1293.632812 648.367188 1293.597656 648.246094 1293.589844 C 648.125 1293.578125 648.007812 1293.597656 647.898438 1293.644531 C 647.785156 1293.691406 647.6875 1293.757812 647.609375 1293.851562 C 644.914062 1296.972656 641.519531 1298.976562 637.425781 1299.859375 C 635.542969 1300.261719 634.117188 1300.375 633.152344 1300.195312 C 627.980469 1299.203125 624.082031 1297.582031 621.21875 1292.867188 C 619.121094 1289.417969 617.703125 1285.398438 616.960938 1280.808594 C 616.328125 1276.894531 616.945312 1271.789062 615.503906 1267.351562 C 615.015625 1265.871094 613.792969 1263 611.835938 1258.738281 C 609.929688 1254.589844 608.324219 1249.726562 607.023438 1244.144531 C 604.929688 1235.171875 603.210938 1226.191406 601.855469 1217.210938 C 601.664062 1215.9375 601.597656 1213.410156 601.652344 1209.628906 C 601.746094 1203.078125 604.953125 1199.511719 611.277344 1198.929688 C 611.703125 1198.890625 612.777344 1198.769531 614.496094 1198.570312 C 614.628906 1198.550781 614.742188 1198.492188 614.824219 1198.382812 C 614.910156 1198.277344 614.945312 1198.15625 614.929688 1198.019531 Z M 614.929688 1198.019531 " fill-opacity="1" fill-rule="nonzero"/></svg>