<?xml version="1.0" standalone="no"?>
<!DOCTYPE svg PUBLIC "-//W3C//DTD SVG 20010904//EN"
 "http://www.w3.org/TR/2001/REC-SVG-20010904/DTD/svg10.dtd">
<svg version="1.0" xmlns="http://www.w3.org/2000/svg"
 width="512.000000pt" height="512.000000pt" viewBox="0 0 512.000000 512.000000"
 preserveAspectRatio="xMidYMid meet">

<g transform="translate(0.000000,512.000000) scale(0.100000,-0.100000)"
fill="#7494ec" stroke="none">
<path d="M1585 3690 c-221 -34 -463 -165 -597 -324 -179 -213 -268 -491 -268
-841 0 -410 90 -689 288 -896 119 -126 241 -196 430 -247 91 -24 110 -26 322
-26 244 0 341 13 510 71 122 41 110 16 110 237 0 106 -2 195 -5 198 -3 3 -45
-7 -93 -22 -184 -59 -316 -83 -467 -84 -119 -1 -151 3 -212 22 -205 64 -321
222 -369 502 -23 138 -15 431 16 550 78 302 266 467 533 469 130 1 251 -31
440 -116 43 -19 80 -33 82 -31 2 1 37 89 79 193 70 174 75 191 59 202 -33 25
-228 95 -332 120 -89 21 -135 26 -286 28 -99 2 -207 0 -240 -5z"/>
<path d="M2865 3658 c-3 -7 -4 -521 -3 -1143 l3 -1130 243 -3 242 -2 0 403 0
404 203 7 c210 7 321 24 436 67 213 79 374 250 426 454 36 140 36 357 0 480
-76 262 -284 418 -619 464 -116 16 -925 15 -931 -1z m908 -417 c102 -40 162
-120 176 -237 16 -135 -18 -245 -97 -315 -78 -68 -204 -99 -403 -99 l-99 0 0
341 0 341 183 -4 c160 -4 189 -7 240 -27z"/>
<path d="M1654 2799 c-3 -6 -12 -8 -20 -5 -7 3 -29 -9 -48 -27 -37 -36 -54
-99 -42 -159 20 -100 27 -180 16 -193 -8 -10 -7 -31 6 -82 19 -78 30 -96 54
-88 11 4 23 -3 34 -19 20 -32 94 -83 147 -101 35 -13 45 -13 75 0 66 27 140
119 168 208 3 9 17 22 30 27 18 6 27 19 31 44 9 47 -3 97 -25 103 -12 3 -20
23 -30 74 -7 44 -20 80 -35 97 -12 15 -25 37 -29 50 -8 25 -53 52 -86 52 -12
0 -29 4 -39 10 -26 13 -199 21 -207 9z"/>
</g>
</svg>
