<svg xmlns="http://www.w3.org/2000/svg" xmlns:xlink="http://www.w3.org/1999/xlink" width="3000" zoomAndPan="magnify" viewBox="0 0 2250 2250.000011" height="3000" preserveAspectRatio="xMidYMid meet" version="1.0"><defs><g/><clipPath id="b6c54a837d"><rect x="0" width="2218" y="0" height="1688"/></clipPath></defs><g transform="matrix(1, 0, 0, 1, 16, 561)"><g clip-path="url(#b6c54a837d)"><g fill="#ffffff" fill-opacity="1"><g transform="translate(1.174834, 1678.747888)"><g><path d="M 52.75 -562.703125 C 52.75 -673.535156 76.726562 -772.378906 124.6875 -859.234375 C 172.644531 -946.085938 239.519531 -1013.757812 325.3125 -1062.25 C 411.101562 -1110.738281 508.347656 -1134.984375 617.046875 -1134.984375 C 750.265625 -1134.984375 864.296875 -1099.816406 959.140625 -1029.484375 C 1053.992188 -959.148438 1117.40625 -863.234375 1149.375 -741.734375 L 848.84375 -741.734375 C 826.46875 -788.628906 794.765625 -824.332031 753.734375 -848.84375 C 712.703125 -873.351562 666.078125 -885.609375 613.859375 -885.609375 C 529.660156 -885.609375 461.453125 -856.300781 409.234375 -797.6875 C 357.015625 -739.070312 330.90625 -660.742188 330.90625 -562.703125 C 330.90625 -464.648438 357.015625 -386.316406 409.234375 -327.703125 C 461.453125 -269.085938 529.660156 -239.78125 613.859375 -239.78125 C 666.078125 -239.78125 712.703125 -252.035156 753.734375 -276.546875 C 794.765625 -301.066406 826.46875 -336.769531 848.84375 -383.65625 L 1149.375 -383.65625 C 1117.40625 -262.164062 1053.992188 -166.515625 959.140625 -96.703125 C 864.296875 -26.898438 750.265625 8 617.046875 8 C 508.347656 8 411.101562 -16.242188 325.3125 -64.734375 C 239.519531 -113.234375 172.644531 -180.644531 124.6875 -266.96875 C 76.726562 -353.289062 52.75 -451.867188 52.75 -562.703125 Z M 52.75 -562.703125 "/></g></g></g><g fill="#ffffff" fill-opacity="1"><g transform="translate(1219.288887, 1678.747888)"><g><path d="M 954.34375 -760.921875 C 954.34375 -695.910156 939.421875 -636.492188 909.578125 -582.671875 C 879.742188 -528.859375 833.921875 -485.429688 772.109375 -452.390625 C 710.296875 -419.359375 633.566406 -402.84375 541.921875 -402.84375 L 372.46875 -402.84375 L 372.46875 0 L 99.109375 0 L 99.109375 -1122.203125 L 541.921875 -1122.203125 C 631.441406 -1122.203125 707.109375 -1106.75 768.921875 -1075.84375 C 830.734375 -1044.9375 877.085938 -1002.304688 907.984375 -947.953125 C 938.890625 -893.597656 954.34375 -831.253906 954.34375 -760.921875 Z M 521.140625 -620.25 C 573.359375 -620.25 612.253906 -632.503906 637.828125 -657.015625 C 663.410156 -681.523438 676.203125 -716.160156 676.203125 -760.921875 C 676.203125 -805.679688 663.410156 -840.316406 637.828125 -864.828125 C 612.253906 -889.335938 573.359375 -901.59375 521.140625 -901.59375 L 372.46875 -901.59375 L 372.46875 -620.25 Z M 521.140625 -620.25 "/></g></g></g></g></g><path fill="#ffffff" d="M 490.96875 1705.628906 C 490.886719 1704.808594 490.28125 1702.183594 489.152344 1697.753906 C 488.699219 1695.964844 488.140625 1693.277344 487.480469 1689.699219 C 485.085938 1676.769531 483.285156 1666.652344 482.078125 1659.34375 C 481.808594 1657.6875 481.839844 1655.59375 481.503906 1653.867188 C 480 1646.101562 479.777344 1637.371094 480.84375 1627.679688 C 481.21875 1624.304688 480.320312 1621.308594 477.910156 1617.984375 C 476.363281 1615.851562 475.261719 1613.730469 474.613281 1611.617188 C 472.691406 1605.378906 471.589844 1599.296875 471.304688 1593.371094 C 471.25 1592.21875 470.875 1591.140625 470.175781 1590.136719 C 464.96875 1582.644531 472.410156 1577.816406 473.269531 1570.601562 C 473.3125 1570.210938 473.253906 1569.835938 473.089844 1569.480469 C 471.316406 1565.667969 470.855469 1561.308594 471.707031 1556.40625 C 471.964844 1554.945312 472.476562 1553.644531 473.246094 1552.511719 C 475.175781 1549.671875 476.734375 1546.9375 477.132812 1543.105469 C 477.679688 1537.941406 478.308594 1532.796875 479.015625 1527.671875 C 479.984375 1520.757812 484.050781 1519.4375 489.09375 1516.203125 C 493.410156 1513.4375 492.378906 1507.386719 497.417969 1505.300781 C 498.941406 1504.671875 502.109375 1504.015625 504.222656 1502.363281 C 506.171875 1500.839844 507.839844 1498.367188 510.820312 1494.773438 C 513 1492.136719 516.132812 1491.5 519.800781 1492.167969 C 521.1875 1492.421875 524.058594 1492.835938 528.414062 1493.414062 C 530.023438 1493.621094 531.875 1493.046875 533.972656 1491.695312 C 537.117188 1489.65625 540.503906 1484.792969 546.015625 1484.785156 C 549.042969 1484.785156 552.398438 1485.269531 555.886719 1486.347656 C 558.976562 1487.308594 560.863281 1487.816406 561.542969 1487.871094 C 563.082031 1488.003906 565.476562 1487.769531 568.722656 1487.175781 C 569.28125 1487.070312 569.804688 1486.882812 570.292969 1486.609375 C 573.855469 1484.621094 578.644531 1483.050781 582.460938 1482.320312 C 587.640625 1481.324219 592.136719 1483.5 598.167969 1485.636719 C 600.585938 1486.492188 602.992188 1487.0625 605.382812 1487.347656 C 610.480469 1487.953125 614.492188 1488.265625 617.421875 1488.28125 C 623.277344 1488.304688 626.222656 1488.664062 631.40625 1488.78125 C 637.839844 1488.925781 643.59375 1490.335938 650.414062 1491.890625 C 651.734375 1492.191406 652.964844 1492.703125 654.097656 1493.429688 C 658.527344 1496.261719 662.867188 1499.25 668.6875 1499.710938 C 674.148438 1500.132812 681.136719 1500.558594 687.636719 1502.351562 C 693.242188 1503.898438 698.503906 1505.675781 703.421875 1507.691406 C 707.445312 1509.339844 710.726562 1511.152344 713.269531 1513.125 C 718.34375 1517.0625 724.527344 1523.054688 725.507812 1529.328125 C 726.007812 1532.519531 726.277344 1536.753906 725.46875 1540.167969 C 725.417969 1540.371094 725.429688 1540.570312 725.503906 1540.769531 C 725.574219 1540.96875 725.691406 1541.132812 725.859375 1541.261719 C 728.574219 1543.34375 732.21875 1546.363281 736.796875 1550.324219 C 741.101562 1554.058594 744.324219 1557.46875 746.464844 1560.558594 C 750.929688 1567.015625 754.128906 1574.046875 756.058594 1581.65625 C 759.179688 1593.957031 761.976562 1606.65625 764.441406 1619.753906 C 766.792969 1632.234375 767.976562 1644.863281 767.988281 1657.632812 C 767.988281 1657.8125 768.066406 1657.945312 768.21875 1658.03125 C 768.375 1658.121094 768.523438 1658.117188 768.675781 1658.023438 C 771.359375 1656.378906 775.402344 1653.496094 779.0625 1654.824219 C 787.117188 1657.738281 790.722656 1664.84375 792.765625 1672.644531 C 794.480469 1679.183594 795.601562 1686.5 796.125 1694.59375 C 796.835938 1705.585938 794.855469 1716.917969 791.351562 1727.167969 C 790.558594 1729.480469 788.917969 1732.484375 786.421875 1736.179688 C 786.25 1736.441406 786.027344 1736.660156 785.761719 1736.835938 C 782.027344 1739.300781 777.238281 1741.304688 772.523438 1741.3125 C 771.476562 1741.3125 770.058594 1741.347656 768.273438 1741.417969 C 762.820312 1741.648438 759.800781 1748.15625 758.792969 1752.980469 C 757.75 1757.96875 756.910156 1762.503906 756.273438 1766.59375 C 756.03125 1768.121094 755.226562 1769.664062 753.859375 1771.21875 C 753.386719 1771.746094 753.027344 1772.34375 752.769531 1773.003906 C 747.636719 1786.214844 742.226562 1799.101562 734.277344 1810.109375 C 724.769531 1823.273438 714.832031 1835.097656 704.46875 1845.582031 C 699.65625 1850.449219 693.949219 1855.320312 687.351562 1860.195312 C 674.03125 1870.035156 663.929688 1876.683594 649.234375 1880.179688 C 647.082031 1880.691406 644.996094 1881.050781 642.980469 1881.257812 C 642.335938 1881.328125 641.695312 1881.316406 641.050781 1881.21875 C 633.472656 1880.105469 626.804688 1878.523438 621.042969 1876.476562 C 609.851562 1872.515625 597.957031 1866.753906 587.511719 1859.367188 C 585.566406 1857.992188 583.09375 1856.617188 580.09375 1855.234375 C 578.476562 1854.492188 574.335938 1851.835938 567.667969 1847.269531 C 564.621094 1845.191406 560.488281 1842.238281 555.265625 1838.410156 C 550.234375 1834.726562 546.351562 1831.441406 543.625 1828.554688 C 540.164062 1824.898438 536.953125 1820.710938 533.996094 1815.988281 C 531.824219 1812.519531 528.785156 1807.703125 524.875 1801.546875 C 524.8125 1801.445312 524.726562 1801.363281 524.621094 1801.300781 C 524.519531 1801.242188 524.40625 1801.207031 524.285156 1801.195312 C 524.164062 1801.1875 524.046875 1801.207031 523.9375 1801.253906 C 523.824219 1801.296875 523.730469 1801.367188 523.648438 1801.457031 C 520.953125 1804.578125 517.558594 1806.582031 513.464844 1807.46875 C 511.582031 1807.871094 510.15625 1807.984375 509.191406 1807.804688 C 504.019531 1806.8125 500.121094 1805.191406 497.257812 1800.476562 C 495.160156 1797.027344 493.742188 1793.007812 493 1788.417969 C 492.367188 1784.503906 492.984375 1779.394531 491.542969 1774.960938 C 491.054688 1773.480469 489.832031 1770.609375 487.875 1766.347656 C 485.96875 1762.199219 484.367188 1757.332031 483.0625 1751.75 C 480.972656 1742.777344 479.25 1733.800781 477.894531 1724.816406 C 477.703125 1723.546875 477.636719 1721.019531 477.691406 1717.238281 C 477.785156 1710.6875 480.992188 1707.121094 487.316406 1706.539062 C 487.742188 1706.5 488.816406 1706.378906 490.535156 1706.175781 C 490.671875 1706.160156 490.78125 1706.097656 490.863281 1705.992188 C 490.949219 1705.886719 490.984375 1705.765625 490.96875 1705.628906 Z M 490.96875 1705.628906 " fill-opacity="1" fill-rule="nonzero"/></svg>