<?xml version="1.0" ?><!DOCTYPE svg  PUBLIC '-//W3C//DTD SVG 1.1//EN'  'http://www.w3.org/Graphics/SVG/1.1/DTD/svg11.dtd'><!-- Uploaded to: SVG Repo, www.svgrepo.com, Generator: SVG Repo Mixer Tools -->
<svg fill="#000000" width="800px" height="800px" viewBox="0 0 32 32" style="fill-rule:evenodd;clip-rule:evenodd;stroke-linejoin:round;stroke-miterlimit:2;" version="1.1" xml:space="preserve" xmlns="http://www.w3.org/2000/svg" xmlns:serif="http://www.serif.com/" xmlns:xlink="http://www.w3.org/1999/xlink"><path d="M5.991,12.003l-0.001,0c-1.105,0 -2.002,0.897 -2.002,2.002c-0,1.105 0.897,2.002 2.002,2.002c1.104,-0 2.001,-0.897 2.001,-2.002l0,-7.122c0,-0 6.001,-0.75 6.001,-0.75l0.003,3.867c-1.105,0 -2.002,0.897 -2.002,2.002c0,1.105 0.897,2.001 2.002,2.001c1.105,0 2.002,-0.896 2.002,-2.001l-0.006,-7.003c0,-0.286 -0.123,-0.559 -0.338,-0.749c-0.215,-0.19 -0.501,-0.278 -0.786,-0.242l-8,1c-0.5,0.062 -0.876,0.488 -0.876,0.992l0,6.003Z"/><path d="M12.617,20.597c-0.813,0.815 -1.326,1.33 -1.326,1.33c-0.186,0.187 -0.29,0.44 -0.291,0.703l-0.009,4.368c-0.001,0.265 0.104,0.52 0.292,0.708c0.188,0.188 0.442,0.294 0.708,0.294l4.427,0c0.265,-0 0.518,-0.105 0.706,-0.291l1.305,-1.3l-5.812,-5.812Zm1.411,-1.417l5.818,5.818l6.946,-6.914c0.773,-0.774 1.208,-1.823 1.208,-2.916c-0,-1.094 -0.435,-2.143 -1.208,-2.916c-0.003,-0.004 -0.006,-0.007 -0.009,-0.01c-0.774,-0.773 -1.823,-1.208 -2.916,-1.208c-1.094,0 -2.143,0.435 -2.916,1.208c-1.958,1.958 -4.822,4.83 -6.923,6.938Z"/></svg>